<?xml version="1.0" encoding="utf-8"?>
<!-- Generator: Adobe Illustrator 23.0.3, SVG Export Plug-In . SVG Version: 6.00 Build 0)  -->
<svg version="1.1" id="Layer_1" xmlns="http://www.w3.org/2000/svg" xmlns:xlink="http://www.w3.org/1999/xlink" x="0px" y="0px"
	 viewBox="0 0 739.23 283.46" style="enable-background:new 0 0 739.23 283.46;" xml:space="preserve">
<style type="text/css">
	.st0{fill:#644A9E;}
	.st1{fill:#1B173D;}
	.st2{fill:#E71D64;}
	.st3{fill:#F89621;}
	.st4{fill:#49B04D;}
	.st5{fill:#CDDA36;}
	.st6{fill:#FFFFFF;}
	.st7{fill:#008FD1;}
	.st8{fill:#15BAD4;}
	.st9{fill:#FCC115;}
	.st10{fill:#4455A5;}
</style>
<g>
	<path class="st10" d="M195.46,0c-7.83,18.85-26.4,32.11-48.09,32.11c-21.68,0-40.26-13.26-48.09-32.11H52.1C23.44,0,0,23.44,0,52.1
		v145.8C0,226.55,23.44,250,52.1,250h46.7c7.49,19.56,26.39,33.47,48.58,33.47c22.19,0,41.09-13.91,48.58-33.47h98.8V0H195.46z"/>
	<g>
		<path class="st6" d="M63.71,150.83c0.61,7.21,7.51,13.34,17.01,13.34c9.66,0,15.33-6.28,16.86-8.58l16.86,13.03
			c-2.3,4.75-13.34,17.78-34.18,17.78c-26.52,0-42.77-18.24-42.77-42c0-23.61,15.94-42.46,39.55-42.46
			c25.6,0,39.55,16.4,39.55,43.84c0,1.53,0,3.22-0.15,5.06H63.71z M64.47,134.59h26.06c-0.31-6.44-5.06-11.96-13.03-11.96
			C69.07,122.63,65.08,128.91,64.47,134.59z"/>
		<path class="st6" d="M183.98,178.12c-2.3,2.61-9.96,8.28-21.77,8.28c-23.15,0-39.39-17.47-39.39-42.15
			c0-24.99,14.72-42.31,38.02-42.31c12.26,0,19.77,6.13,21.46,8.12V73.58h25.6V184.4h-23.91V178.12z M165.74,124.47
			c-10.42,0-17.32,8.12-17.32,19.93c0,11.96,7.05,19.62,17.32,19.62c11.04,0,17.32-8.89,17.32-19.62
			C183.06,131.67,175.86,124.47,165.74,124.47z"/>
		<path class="st6" d="M247.54,151.91c0,7.51,4.45,11.5,10.58,11.5c7.05,0,11.04-5.06,11.04-11.5v-47.98h25.6v80.48h-24.98v-8.28
			c-3.07,4.75-10.12,10.27-20.24,10.27c-25.14,0-27.59-21.46-27.59-37.86v-44.61h25.6V151.91z"/>
	</g>
	<g>
		<path class="st2" d="M318.67,184.4h-23.91V73.58h25.6v36.48c1.69-1.99,9.2-8.12,21.46-8.12c23.3,0,38.02,17.32,38.02,42.31
			c0,24.68-16.25,42.15-39.4,42.15c-11.8,0-19.47-5.67-21.77-8.28V184.4z M336.91,164.02c10.27,0,17.32-7.66,17.32-19.62
			c0-11.8-6.9-19.93-17.32-19.93c-10.12,0-17.32,7.2-17.32,19.93C319.59,155.13,325.87,164.02,336.91,164.02z"/>
		<path class="st2" d="M390.36,73.58h25.6V184.4h-25.6V73.58z"/>
		<path class="st2" d="M469.85,101.94c25.91,0,44.15,17.78,44.15,42.15c0,24.22-18.7,42.31-44.15,42.31
			c-25.6,0-43.69-17.78-43.69-42C426.17,120.02,445.02,101.94,469.85,101.94z M469.85,163.86c10.58,0,18.55-8.28,18.55-19.77
			c0-11.81-8.12-19.62-18.55-19.62c-10.58,0-18.09,8.12-18.09,19.93C451.76,156.05,459.43,163.86,469.85,163.86z"/>
		<path class="st2" d="M580.17,158.19l6.75,21c-5.37,3.68-13.49,7.2-23.61,7.2c-25.6,0-43.69-17.47-43.69-42.15
			c0-24.68,18.7-42.31,43.53-42.31c10.42,0,18.24,3.37,23.91,7.36l-6.9,21.61c-4.45-3.68-10.12-5.98-16.1-5.98
			c-12.11,0-18.85,8.43-18.85,19.16c0,11.8,7.97,19.77,19.77,19.77C570.97,163.86,576.64,161.1,580.17,158.19z"/>
		<path class="st2" d="M646.88,140.72l28.05,43.69h-30.05l-22.53-37.56v37.56h-25.6V73.58h25.6v62.7l21.77-32.34h28.67
			L646.88,140.72z"/>
		<path class="st2" d="M675.46,172.6l14.41-13.95c4.29,3.83,9.66,7.05,17.78,7.05c4.91,0,7.2-1.53,7.2-4.45
			c0-9.2-36.79-5.21-36.79-34.49c0-15.48,13.49-24.83,30.97-24.83c15.33,0,24.07,7.36,28.82,13.8l-16.55,13.03
			c-2.45-2.45-7.05-6.29-13.34-6.29c-3.68,0-5.83,1.53-5.83,3.99c0,10.12,37.1,4.29,37.1,33.42c0,16.4-14.41,26.52-32.8,26.52
			C691.1,186.4,680.21,179.04,675.46,172.6z"/>
	</g>
</g>
</svg>
